<mxfile host="app.diagrams.net" modified="2021-10-05T09:38:14.379Z" agent="5.0 (Macintosh; Intel Mac OS X 10_15_6) AppleWebKit/605.1.15 (KHTML, like Gecko) Version/15.0 Safari/605.1.15" etag="ta6Xnxp0wruMlLI5McMc" version="15.4.1" type="github" pages="2">
  <diagram id="rdmNm7blJMBrnPc9yoXX" name="Page-1">
    <mxGraphModel dx="2450" dy="2542" grid="1" gridSize="10" guides="1" tooltips="1" connect="1" arrows="1" fold="1" page="1" pageScale="1" pageWidth="827" pageHeight="1169" math="0" shadow="0">
      <root>
        <mxCell id="0" />
        <mxCell id="1" parent="0" />
        <mxCell id="NA3H21Q3aeugYwYsM-4N-1" value="" style="rounded=0;whiteSpace=wrap;html=1;" vertex="1" parent="1">
          <mxGeometry x="50" y="60" width="380" height="170" as="geometry" />
        </mxCell>
        <mxCell id="NA3H21Q3aeugYwYsM-4N-2" value="" style="rounded=0;whiteSpace=wrap;html=1;" vertex="1" parent="1">
          <mxGeometry x="50" y="40" width="120" height="20" as="geometry" />
        </mxCell>
        <mxCell id="NA3H21Q3aeugYwYsM-4N-3" value="board" style="text;html=1;align=center;verticalAlign=middle;resizable=0;points=[];autosize=1;strokeColor=none;fillColor=none;" vertex="1" parent="1">
          <mxGeometry x="45" y="40" width="50" height="20" as="geometry" />
        </mxCell>
        <mxCell id="NA3H21Q3aeugYwYsM-4N-4" value="BoardFactory" style="rounded=0;whiteSpace=wrap;html=1;" vertex="1" parent="1">
          <mxGeometry x="80" y="100" width="80" height="20" as="geometry" />
        </mxCell>
        <mxCell id="NA3H21Q3aeugYwYsM-4N-5" value="Board" style="rounded=0;whiteSpace=wrap;html=1;" vertex="1" parent="1">
          <mxGeometry x="290" y="100" width="90" height="20" as="geometry" />
        </mxCell>
        <mxCell id="NA3H21Q3aeugYwYsM-4N-8" value="Square" style="rounded=0;whiteSpace=wrap;html=1;" vertex="1" parent="1">
          <mxGeometry x="80" y="180" width="80" height="20" as="geometry" />
        </mxCell>
        <mxCell id="NA3H21Q3aeugYwYsM-4N-10" value="" style="rounded=0;whiteSpace=wrap;html=1;" vertex="1" parent="1">
          <mxGeometry x="460" y="60" width="300" height="170" as="geometry" />
        </mxCell>
        <mxCell id="NA3H21Q3aeugYwYsM-4N-11" value="game" style="rounded=0;whiteSpace=wrap;html=1;" vertex="1" parent="1">
          <mxGeometry x="460" y="30" width="120" height="30" as="geometry" />
        </mxCell>
        <mxCell id="NA3H21Q3aeugYwYsM-4N-9" value="Unit" style="rounded=0;whiteSpace=wrap;html=1;" vertex="1" parent="1">
          <mxGeometry x="294" y="180" width="90" height="20" as="geometry" />
        </mxCell>
        <mxCell id="NA3H21Q3aeugYwYsM-4N-17" value="" style="endArrow=open;endFill=1;endSize=12;html=1;rounded=0;edgeStyle=orthogonalEdgeStyle;" edge="1" parent="1" source="NA3H21Q3aeugYwYsM-4N-5" target="NA3H21Q3aeugYwYsM-4N-8">
          <mxGeometry width="160" relative="1" as="geometry">
            <mxPoint x="190" y="120" as="sourcePoint" />
            <mxPoint x="350" y="120" as="targetPoint" />
            <Array as="points">
              <mxPoint x="335" y="140" />
              <mxPoint x="120" y="140" />
            </Array>
          </mxGeometry>
        </mxCell>
        <mxCell id="NA3H21Q3aeugYwYsM-4N-18" value="" style="endArrow=open;endFill=1;endSize=12;html=1;rounded=0;edgeStyle=orthogonalEdgeStyle;" edge="1" parent="1" source="NA3H21Q3aeugYwYsM-4N-4" target="NA3H21Q3aeugYwYsM-4N-5">
          <mxGeometry width="160" relative="1" as="geometry">
            <mxPoint x="190" y="120" as="sourcePoint" />
            <mxPoint x="350" y="120" as="targetPoint" />
          </mxGeometry>
        </mxCell>
        <mxCell id="NA3H21Q3aeugYwYsM-4N-19" value="" style="endArrow=open;endFill=1;endSize=12;html=1;rounded=0;edgeStyle=orthogonalEdgeStyle;entryX=0.5;entryY=1;entryDx=0;entryDy=0;exitX=0;exitY=0.5;exitDx=0;exitDy=0;" edge="1" parent="1" source="NA3H21Q3aeugYwYsM-4N-4" target="NA3H21Q3aeugYwYsM-4N-8">
          <mxGeometry width="160" relative="1" as="geometry">
            <mxPoint x="150" y="110" as="sourcePoint" />
            <mxPoint x="350" y="120" as="targetPoint" />
            <Array as="points">
              <mxPoint x="60" y="110" />
              <mxPoint x="60" y="210" />
              <mxPoint x="120" y="210" />
            </Array>
          </mxGeometry>
        </mxCell>
        <mxCell id="NA3H21Q3aeugYwYsM-4N-27" value="" style="endArrow=block;startArrow=block;endFill=1;startFill=1;html=1;rounded=0;edgeStyle=orthogonalEdgeStyle;entryX=0;entryY=0.5;entryDx=0;entryDy=0;exitX=1;exitY=0.5;exitDx=0;exitDy=0;" edge="1" parent="1" source="NA3H21Q3aeugYwYsM-4N-8" target="NA3H21Q3aeugYwYsM-4N-9">
          <mxGeometry width="160" relative="1" as="geometry">
            <mxPoint x="190" y="120" as="sourcePoint" />
            <mxPoint x="350" y="120" as="targetPoint" />
            <Array as="points" />
          </mxGeometry>
        </mxCell>
        <mxCell id="NA3H21Q3aeugYwYsM-4N-28" value="Game" style="rounded=0;whiteSpace=wrap;html=1;" vertex="1" parent="1">
          <mxGeometry x="480" y="90" width="80" height="20" as="geometry" />
        </mxCell>
        <mxCell id="NA3H21Q3aeugYwYsM-4N-29" value="SinglePlayerGame" style="rounded=0;whiteSpace=wrap;html=1;" vertex="1" parent="1">
          <mxGeometry x="570" y="160" width="110" height="30" as="geometry" />
        </mxCell>
        <mxCell id="NA3H21Q3aeugYwYsM-4N-30" value="GameFactory" style="rounded=0;whiteSpace=wrap;html=1;" vertex="1" parent="1">
          <mxGeometry x="640" y="80" width="100" height="30" as="geometry" />
        </mxCell>
        <mxCell id="NA3H21Q3aeugYwYsM-4N-32" value="" style="endArrow=open;endFill=1;endSize=12;html=1;rounded=0;edgeStyle=orthogonalEdgeStyle;exitX=0;exitY=0.5;exitDx=0;exitDy=0;" edge="1" parent="1" source="NA3H21Q3aeugYwYsM-4N-30">
          <mxGeometry width="160" relative="1" as="geometry">
            <mxPoint x="320" y="20" as="sourcePoint" />
            <mxPoint x="550" y="100" as="targetPoint" />
          </mxGeometry>
        </mxCell>
        <mxCell id="NA3H21Q3aeugYwYsM-4N-33" value="" style="endArrow=open;endFill=1;endSize=12;html=1;rounded=0;edgeStyle=orthogonalEdgeStyle;exitX=0.5;exitY=1;exitDx=0;exitDy=0;entryX=1;entryY=0.25;entryDx=0;entryDy=0;" edge="1" parent="1" source="NA3H21Q3aeugYwYsM-4N-30" target="NA3H21Q3aeugYwYsM-4N-29">
          <mxGeometry width="160" relative="1" as="geometry">
            <mxPoint x="320" y="20" as="sourcePoint" />
            <mxPoint x="480" y="20" as="targetPoint" />
            <Array as="points">
              <mxPoint x="690" y="150" />
              <mxPoint x="680" y="150" />
            </Array>
          </mxGeometry>
        </mxCell>
        <mxCell id="NA3H21Q3aeugYwYsM-4N-34" value="" style="endArrow=open;endFill=1;endSize=12;html=1;rounded=0;edgeStyle=orthogonalEdgeStyle;exitX=0.5;exitY=0;exitDx=0;exitDy=0;entryX=0.5;entryY=1;entryDx=0;entryDy=0;" edge="1" parent="1" source="NA3H21Q3aeugYwYsM-4N-29" target="NA3H21Q3aeugYwYsM-4N-28">
          <mxGeometry width="160" relative="1" as="geometry">
            <mxPoint x="320" y="20" as="sourcePoint" />
            <mxPoint x="480" y="20" as="targetPoint" />
          </mxGeometry>
        </mxCell>
        <mxCell id="NA3H21Q3aeugYwYsM-4N-35" value="" style="rounded=0;whiteSpace=wrap;html=1;" vertex="1" parent="1">
          <mxGeometry x="55" y="370" width="535" height="260" as="geometry" />
        </mxCell>
        <mxCell id="NA3H21Q3aeugYwYsM-4N-36" value="level" style="rounded=0;whiteSpace=wrap;html=1;" vertex="1" parent="1">
          <mxGeometry x="55" y="350" width="115" height="30" as="geometry" />
        </mxCell>
        <mxCell id="NA3H21Q3aeugYwYsM-4N-37" value="CollisionInteractionMap" style="rounded=0;whiteSpace=wrap;html=1;" vertex="1" parent="1">
          <mxGeometry x="80" y="430" width="130" height="30" as="geometry" />
        </mxCell>
        <mxCell id="NA3H21Q3aeugYwYsM-4N-38" value="DefaultPlayerInteractionMap" style="rounded=0;whiteSpace=wrap;html=1;" vertex="1" parent="1">
          <mxGeometry x="80" y="500" width="155" height="30" as="geometry" />
        </mxCell>
        <mxCell id="NA3H21Q3aeugYwYsM-4N-39" value="Level" style="rounded=0;whiteSpace=wrap;html=1;" vertex="1" parent="1">
          <mxGeometry x="260" y="435" width="120" height="25" as="geometry" />
        </mxCell>
        <mxCell id="NA3H21Q3aeugYwYsM-4N-40" value="LevelFactory" style="rounded=0;whiteSpace=wrap;html=1;" vertex="1" parent="1">
          <mxGeometry x="260" y="500" width="120" height="30" as="geometry" />
        </mxCell>
        <mxCell id="NA3H21Q3aeugYwYsM-4N-41" value="MapParser" style="rounded=0;whiteSpace=wrap;html=1;" vertex="1" parent="1">
          <mxGeometry x="80" y="560" width="122.5" height="30" as="geometry" />
        </mxCell>
        <mxCell id="NA3H21Q3aeugYwYsM-4N-42" value="Pellet" style="rounded=0;whiteSpace=wrap;html=1;" vertex="1" parent="1">
          <mxGeometry x="260" y="560" width="120" height="30" as="geometry" />
        </mxCell>
        <mxCell id="NA3H21Q3aeugYwYsM-4N-43" value="Player" style="rounded=0;whiteSpace=wrap;html=1;" vertex="1" parent="1">
          <mxGeometry x="410" y="430" width="110" height="30" as="geometry" />
        </mxCell>
        <mxCell id="NA3H21Q3aeugYwYsM-4N-44" value="PlayerCollisions" style="rounded=0;whiteSpace=wrap;html=1;" vertex="1" parent="1">
          <mxGeometry x="410" y="500" width="125" height="30" as="geometry" />
        </mxCell>
        <mxCell id="NA3H21Q3aeugYwYsM-4N-45" value="PlayerFactory" style="rounded=0;whiteSpace=wrap;html=1;" vertex="1" parent="1">
          <mxGeometry x="410" y="560" width="120" height="30" as="geometry" />
        </mxCell>
        <mxCell id="NA3H21Q3aeugYwYsM-4N-46" value="" style="endArrow=open;endFill=1;endSize=12;html=1;rounded=0;edgeStyle=orthogonalEdgeStyle;exitX=0.5;exitY=0;exitDx=0;exitDy=0;entryX=0.75;entryY=1;entryDx=0;entryDy=0;" edge="1" parent="1" source="NA3H21Q3aeugYwYsM-4N-38" target="NA3H21Q3aeugYwYsM-4N-37">
          <mxGeometry width="160" relative="1" as="geometry">
            <mxPoint x="270" y="360" as="sourcePoint" />
            <mxPoint x="430" y="360" as="targetPoint" />
            <Array as="points">
              <mxPoint x="158" y="490" />
              <mxPoint x="178" y="490" />
              <mxPoint x="178" y="480" />
              <mxPoint x="178" y="480" />
            </Array>
          </mxGeometry>
        </mxCell>
        <mxCell id="NA3H21Q3aeugYwYsM-4N-49" value="" style="endArrow=open;endFill=1;endSize=12;html=1;rounded=0;edgeStyle=orthogonalEdgeStyle;exitX=1;exitY=0.5;exitDx=0;exitDy=0;entryX=0;entryY=0.5;entryDx=0;entryDy=0;" edge="1" parent="1" source="NA3H21Q3aeugYwYsM-4N-39" target="NA3H21Q3aeugYwYsM-4N-43">
          <mxGeometry width="160" relative="1" as="geometry">
            <mxPoint x="190" y="570" as="sourcePoint" />
            <mxPoint x="350" y="570" as="targetPoint" />
          </mxGeometry>
        </mxCell>
        <mxCell id="NA3H21Q3aeugYwYsM-4N-50" value="" style="endArrow=open;endFill=1;endSize=12;html=1;rounded=0;edgeStyle=orthogonalEdgeStyle;exitX=0.5;exitY=0;exitDx=0;exitDy=0;entryX=0.5;entryY=1;entryDx=0;entryDy=0;" edge="1" parent="1" source="NA3H21Q3aeugYwYsM-4N-40" target="NA3H21Q3aeugYwYsM-4N-39">
          <mxGeometry width="160" relative="1" as="geometry">
            <mxPoint x="260" y="580" as="sourcePoint" />
            <mxPoint x="420" y="580" as="targetPoint" />
            <Array as="points" />
          </mxGeometry>
        </mxCell>
        <mxCell id="NA3H21Q3aeugYwYsM-4N-51" value="" style="endArrow=open;endFill=1;endSize=12;html=1;rounded=0;edgeStyle=orthogonalEdgeStyle;exitX=1;exitY=0.5;exitDx=0;exitDy=0;" edge="1" parent="1" source="NA3H21Q3aeugYwYsM-4N-40">
          <mxGeometry width="160" relative="1" as="geometry">
            <mxPoint x="260" y="580" as="sourcePoint" />
            <mxPoint x="410" y="515" as="targetPoint" />
          </mxGeometry>
        </mxCell>
        <mxCell id="NA3H21Q3aeugYwYsM-4N-52" value="" style="endArrow=open;endFill=1;endSize=12;html=1;rounded=0;edgeStyle=orthogonalEdgeStyle;exitX=0.5;exitY=1;exitDx=0;exitDy=0;entryX=0.5;entryY=0;entryDx=0;entryDy=0;" edge="1" parent="1" source="NA3H21Q3aeugYwYsM-4N-40" target="NA3H21Q3aeugYwYsM-4N-42">
          <mxGeometry width="160" relative="1" as="geometry">
            <mxPoint x="260" y="580" as="sourcePoint" />
            <mxPoint x="420" y="580" as="targetPoint" />
          </mxGeometry>
        </mxCell>
        <mxCell id="NA3H21Q3aeugYwYsM-4N-53" value="" style="endArrow=open;endFill=1;endSize=12;html=1;rounded=0;edgeStyle=orthogonalEdgeStyle;exitX=0;exitY=0.5;exitDx=0;exitDy=0;entryX=0;entryY=0.5;entryDx=0;entryDy=0;" edge="1" parent="1" source="NA3H21Q3aeugYwYsM-4N-39" target="NA3H21Q3aeugYwYsM-4N-42">
          <mxGeometry width="160" relative="1" as="geometry">
            <mxPoint x="260" y="580" as="sourcePoint" />
            <mxPoint x="420" y="580" as="targetPoint" />
          </mxGeometry>
        </mxCell>
        <mxCell id="NA3H21Q3aeugYwYsM-4N-54" value="" style="endArrow=open;endFill=1;endSize=12;html=1;rounded=0;edgeStyle=orthogonalEdgeStyle;exitX=1;exitY=0.5;exitDx=0;exitDy=0;entryX=0.25;entryY=1;entryDx=0;entryDy=0;" edge="1" parent="1" source="NA3H21Q3aeugYwYsM-4N-41" target="NA3H21Q3aeugYwYsM-4N-40">
          <mxGeometry width="160" relative="1" as="geometry">
            <mxPoint x="260" y="580" as="sourcePoint" />
            <mxPoint x="420" y="580" as="targetPoint" />
            <Array as="points">
              <mxPoint x="220" y="575" />
              <mxPoint x="220" y="550" />
              <mxPoint x="290" y="550" />
            </Array>
          </mxGeometry>
        </mxCell>
        <mxCell id="NA3H21Q3aeugYwYsM-4N-55" value="" style="endArrow=open;endFill=1;endSize=12;html=1;rounded=0;edgeStyle=orthogonalEdgeStyle;entryX=0;entryY=1;entryDx=0;entryDy=0;" edge="1" parent="1" target="NA3H21Q3aeugYwYsM-4N-39">
          <mxGeometry width="160" relative="1" as="geometry">
            <mxPoint x="200" y="580" as="sourcePoint" />
            <mxPoint x="420" y="580" as="targetPoint" />
            <Array as="points">
              <mxPoint x="240" y="580" />
              <mxPoint x="240" y="460" />
            </Array>
          </mxGeometry>
        </mxCell>
        <mxCell id="NA3H21Q3aeugYwYsM-4N-56" value="" style="endArrow=open;endFill=1;endSize=12;html=1;rounded=0;edgeStyle=orthogonalEdgeStyle;exitX=0.25;exitY=1;exitDx=0;exitDy=0;entryX=1;entryY=0.5;entryDx=0;entryDy=0;" edge="1" parent="1" source="NA3H21Q3aeugYwYsM-4N-44" target="NA3H21Q3aeugYwYsM-4N-42">
          <mxGeometry width="160" relative="1" as="geometry">
            <mxPoint x="260" y="580" as="sourcePoint" />
            <mxPoint x="420" y="580" as="targetPoint" />
            <Array as="points">
              <mxPoint x="441" y="540" />
              <mxPoint x="400" y="540" />
              <mxPoint x="400" y="575" />
            </Array>
          </mxGeometry>
        </mxCell>
        <mxCell id="NA3H21Q3aeugYwYsM-4N-58" value="" style="endArrow=open;endFill=1;endSize=12;html=1;rounded=0;edgeStyle=orthogonalEdgeStyle;exitX=0.5;exitY=0;exitDx=0;exitDy=0;" edge="1" parent="1" source="NA3H21Q3aeugYwYsM-4N-44">
          <mxGeometry width="160" relative="1" as="geometry">
            <mxPoint x="260" y="580" as="sourcePoint" />
            <mxPoint x="473" y="460" as="targetPoint" />
          </mxGeometry>
        </mxCell>
        <mxCell id="NA3H21Q3aeugYwYsM-4N-59" value="" style="endArrow=open;endFill=1;endSize=12;html=1;rounded=0;edgeStyle=orthogonalEdgeStyle;exitX=1;exitY=0.5;exitDx=0;exitDy=0;entryX=1;entryY=0.5;entryDx=0;entryDy=0;" edge="1" parent="1" source="NA3H21Q3aeugYwYsM-4N-45" target="NA3H21Q3aeugYwYsM-4N-43">
          <mxGeometry width="160" relative="1" as="geometry">
            <mxPoint x="260" y="580" as="sourcePoint" />
            <mxPoint x="420" y="580" as="targetPoint" />
            <Array as="points">
              <mxPoint x="540" y="575" />
              <mxPoint x="540" y="570" />
              <mxPoint x="560" y="570" />
              <mxPoint x="560" y="445" />
            </Array>
          </mxGeometry>
        </mxCell>
        <mxCell id="NA3H21Q3aeugYwYsM-4N-60" value="" style="rounded=0;whiteSpace=wrap;html=1;" vertex="1" parent="1">
          <mxGeometry x="10" y="699" width="410" height="350" as="geometry" />
        </mxCell>
        <mxCell id="NA3H21Q3aeugYwYsM-4N-61" value="npc" style="rounded=0;whiteSpace=wrap;html=1;" vertex="1" parent="1">
          <mxGeometry x="10" y="670" width="80" height="30" as="geometry" />
        </mxCell>
        <mxCell id="NA3H21Q3aeugYwYsM-4N-62" value="" style="rounded=0;whiteSpace=wrap;html=1;strokeColor=#808080;" vertex="1" parent="1">
          <mxGeometry x="35" y="735" width="180" height="310" as="geometry" />
        </mxCell>
        <mxCell id="NA3H21Q3aeugYwYsM-4N-63" value="Blinky" style="rounded=0;whiteSpace=wrap;html=1;" vertex="1" parent="1">
          <mxGeometry x="80" y="740" width="90" height="20" as="geometry" />
        </mxCell>
        <mxCell id="NA3H21Q3aeugYwYsM-4N-64" value="ghost" style="rounded=0;whiteSpace=wrap;html=1;strokeColor=#999999;" vertex="1" parent="1">
          <mxGeometry x="35" y="715" width="90" height="20" as="geometry" />
        </mxCell>
        <mxCell id="NA3H21Q3aeugYwYsM-4N-65" value="Clyde" style="rounded=0;whiteSpace=wrap;html=1;" vertex="1" parent="1">
          <mxGeometry x="80" y="790" width="90" height="20" as="geometry" />
        </mxCell>
        <mxCell id="NA3H21Q3aeugYwYsM-4N-66" value="GhostFactory" style="rounded=0;whiteSpace=wrap;html=1;" vertex="1" parent="1">
          <mxGeometry x="80" y="840" width="90" height="20" as="geometry" />
        </mxCell>
        <mxCell id="NA3H21Q3aeugYwYsM-4N-67" value="Inky" style="rounded=0;whiteSpace=wrap;html=1;" vertex="1" parent="1">
          <mxGeometry x="80" y="890" width="90" height="20" as="geometry" />
        </mxCell>
        <mxCell id="NA3H21Q3aeugYwYsM-4N-68" value="Navigation" style="rounded=0;whiteSpace=wrap;html=1;" vertex="1" parent="1">
          <mxGeometry x="80" y="940" width="90" height="20" as="geometry" />
        </mxCell>
        <mxCell id="NA3H21Q3aeugYwYsM-4N-69" value="Pinky" style="rounded=0;whiteSpace=wrap;html=1;" vertex="1" parent="1">
          <mxGeometry x="80" y="990" width="90" height="20" as="geometry" />
        </mxCell>
        <mxCell id="NA3H21Q3aeugYwYsM-4N-70" value="Ghost" style="rounded=0;whiteSpace=wrap;html=1;" vertex="1" parent="1">
          <mxGeometry x="260" y="820" width="100" height="30" as="geometry" />
        </mxCell>
        <mxCell id="NA3H21Q3aeugYwYsM-4N-71" value="" style="endArrow=open;endFill=1;endSize=12;html=1;rounded=0;edgeStyle=orthogonalEdgeStyle;exitX=1;exitY=0.5;exitDx=0;exitDy=0;entryX=0.5;entryY=0;entryDx=0;entryDy=0;entryPerimeter=0;" edge="1" parent="1" source="NA3H21Q3aeugYwYsM-4N-63" target="NA3H21Q3aeugYwYsM-4N-70">
          <mxGeometry width="160" relative="1" as="geometry">
            <mxPoint x="140" y="880" as="sourcePoint" />
            <mxPoint x="300" y="880" as="targetPoint" />
          </mxGeometry>
        </mxCell>
        <mxCell id="NA3H21Q3aeugYwYsM-4N-72" value="" style="endArrow=open;endFill=1;endSize=12;html=1;rounded=0;edgeStyle=orthogonalEdgeStyle;exitX=1;exitY=0.25;exitDx=0;exitDy=0;entryX=0.25;entryY=0;entryDx=0;entryDy=0;" edge="1" parent="1" source="NA3H21Q3aeugYwYsM-4N-65" target="NA3H21Q3aeugYwYsM-4N-70">
          <mxGeometry width="160" relative="1" as="geometry">
            <mxPoint x="140" y="880" as="sourcePoint" />
            <mxPoint x="300" y="880" as="targetPoint" />
          </mxGeometry>
        </mxCell>
        <mxCell id="NA3H21Q3aeugYwYsM-4N-73" value="" style="endArrow=open;endFill=1;endSize=12;html=1;rounded=0;edgeStyle=orthogonalEdgeStyle;entryX=0.25;entryY=1;entryDx=0;entryDy=0;exitX=0;exitY=0.5;exitDx=0;exitDy=0;" edge="1" parent="1" source="NA3H21Q3aeugYwYsM-4N-65" target="NA3H21Q3aeugYwYsM-4N-68">
          <mxGeometry width="160" relative="1" as="geometry">
            <mxPoint x="140" y="880" as="sourcePoint" />
            <mxPoint x="300" y="880" as="targetPoint" />
            <Array as="points">
              <mxPoint x="50" y="800" />
              <mxPoint x="50" y="970" />
              <mxPoint x="103" y="970" />
            </Array>
          </mxGeometry>
        </mxCell>
        <mxCell id="NA3H21Q3aeugYwYsM-4N-75" value="" style="endArrow=open;endFill=1;endSize=12;html=1;rounded=0;edgeStyle=orthogonalEdgeStyle;exitX=0;exitY=0.25;exitDx=0;exitDy=0;" edge="1" parent="1" source="NA3H21Q3aeugYwYsM-4N-63">
          <mxGeometry width="160" relative="1" as="geometry">
            <mxPoint x="140" y="880" as="sourcePoint" />
            <mxPoint x="80" y="950" as="targetPoint" />
            <Array as="points">
              <mxPoint x="80" y="740" />
              <mxPoint x="60" y="740" />
              <mxPoint x="60" y="950" />
            </Array>
          </mxGeometry>
        </mxCell>
        <mxCell id="NA3H21Q3aeugYwYsM-4N-76" value="" style="endArrow=open;endFill=1;endSize=12;html=1;rounded=0;edgeStyle=orthogonalEdgeStyle;exitX=1;exitY=0.5;exitDx=0;exitDy=0;" edge="1" parent="1" source="NA3H21Q3aeugYwYsM-4N-66">
          <mxGeometry width="160" relative="1" as="geometry">
            <mxPoint x="140" y="880" as="sourcePoint" />
            <mxPoint x="170" y="760" as="targetPoint" />
            <Array as="points">
              <mxPoint x="180" y="850" />
              <mxPoint x="180" y="760" />
            </Array>
          </mxGeometry>
        </mxCell>
        <mxCell id="NA3H21Q3aeugYwYsM-4N-77" value="" style="endArrow=open;endFill=1;endSize=12;html=1;rounded=0;edgeStyle=orthogonalEdgeStyle;exitX=0.5;exitY=0;exitDx=0;exitDy=0;entryX=0.5;entryY=1;entryDx=0;entryDy=0;" edge="1" parent="1" source="NA3H21Q3aeugYwYsM-4N-66" target="NA3H21Q3aeugYwYsM-4N-65">
          <mxGeometry width="160" relative="1" as="geometry">
            <mxPoint x="140" y="880" as="sourcePoint" />
            <mxPoint x="300" y="880" as="targetPoint" />
          </mxGeometry>
        </mxCell>
        <mxCell id="NA3H21Q3aeugYwYsM-4N-78" value="" style="endArrow=open;endFill=1;endSize=12;html=1;rounded=0;edgeStyle=orthogonalEdgeStyle;exitX=0.5;exitY=1;exitDx=0;exitDy=0;entryX=0.5;entryY=0;entryDx=0;entryDy=0;" edge="1" parent="1" source="NA3H21Q3aeugYwYsM-4N-66" target="NA3H21Q3aeugYwYsM-4N-67">
          <mxGeometry width="160" relative="1" as="geometry">
            <mxPoint x="140" y="880" as="sourcePoint" />
            <mxPoint x="300" y="880" as="targetPoint" />
          </mxGeometry>
        </mxCell>
        <mxCell id="NA3H21Q3aeugYwYsM-4N-79" value="" style="endArrow=open;endFill=1;endSize=12;html=1;rounded=0;edgeStyle=orthogonalEdgeStyle;exitX=1;exitY=0.75;exitDx=0;exitDy=0;entryX=1;entryY=0.5;entryDx=0;entryDy=0;" edge="1" parent="1" source="NA3H21Q3aeugYwYsM-4N-66" target="NA3H21Q3aeugYwYsM-4N-69">
          <mxGeometry width="160" relative="1" as="geometry">
            <mxPoint x="140" y="880" as="sourcePoint" />
            <mxPoint x="300" y="880" as="targetPoint" />
          </mxGeometry>
        </mxCell>
        <mxCell id="NA3H21Q3aeugYwYsM-4N-80" value="" style="endArrow=open;endFill=1;endSize=12;html=1;rounded=0;edgeStyle=orthogonalEdgeStyle;exitX=1;exitY=0;exitDx=0;exitDy=0;entryX=0;entryY=0.5;entryDx=0;entryDy=0;" edge="1" parent="1" source="NA3H21Q3aeugYwYsM-4N-66" target="NA3H21Q3aeugYwYsM-4N-70">
          <mxGeometry width="160" relative="1" as="geometry">
            <mxPoint x="140" y="880" as="sourcePoint" />
            <mxPoint x="300" y="880" as="targetPoint" />
          </mxGeometry>
        </mxCell>
        <mxCell id="NA3H21Q3aeugYwYsM-4N-81" value="" style="endArrow=open;endFill=1;endSize=12;html=1;rounded=0;edgeStyle=orthogonalEdgeStyle;exitX=0;exitY=0.5;exitDx=0;exitDy=0;entryX=0;entryY=0.5;entryDx=0;entryDy=0;" edge="1" parent="1" source="NA3H21Q3aeugYwYsM-4N-67" target="NA3H21Q3aeugYwYsM-4N-63">
          <mxGeometry width="160" relative="1" as="geometry">
            <mxPoint x="140" y="880" as="sourcePoint" />
            <mxPoint x="300" y="880" as="targetPoint" />
          </mxGeometry>
        </mxCell>
        <mxCell id="NA3H21Q3aeugYwYsM-4N-82" value="" style="endArrow=open;endFill=1;endSize=12;html=1;rounded=0;edgeStyle=orthogonalEdgeStyle;exitX=1;exitY=0.5;exitDx=0;exitDy=0;entryX=1;entryY=0.5;entryDx=0;entryDy=0;" edge="1" parent="1" source="NA3H21Q3aeugYwYsM-4N-67" target="NA3H21Q3aeugYwYsM-4N-68">
          <mxGeometry width="160" relative="1" as="geometry">
            <mxPoint x="140" y="880" as="sourcePoint" />
            <mxPoint x="300" y="880" as="targetPoint" />
            <Array as="points">
              <mxPoint x="190" y="900" />
              <mxPoint x="190" y="950" />
            </Array>
          </mxGeometry>
        </mxCell>
        <mxCell id="NA3H21Q3aeugYwYsM-4N-83" value="" style="endArrow=open;endFill=1;endSize=12;html=1;rounded=0;edgeStyle=orthogonalEdgeStyle;exitX=1;exitY=0;exitDx=0;exitDy=0;entryX=0.25;entryY=1;entryDx=0;entryDy=0;" edge="1" parent="1" source="NA3H21Q3aeugYwYsM-4N-67" target="NA3H21Q3aeugYwYsM-4N-70">
          <mxGeometry width="160" relative="1" as="geometry">
            <mxPoint x="140" y="880" as="sourcePoint" />
            <mxPoint x="300" y="880" as="targetPoint" />
          </mxGeometry>
        </mxCell>
        <mxCell id="NA3H21Q3aeugYwYsM-4N-84" value="" style="endArrow=open;endFill=1;endSize=12;html=1;rounded=0;edgeStyle=orthogonalEdgeStyle;exitX=0.5;exitY=0;exitDx=0;exitDy=0;" edge="1" parent="1" source="NA3H21Q3aeugYwYsM-4N-69">
          <mxGeometry width="160" relative="1" as="geometry">
            <mxPoint x="140" y="880" as="sourcePoint" />
            <mxPoint x="125" y="960" as="targetPoint" />
          </mxGeometry>
        </mxCell>
        <mxCell id="NA3H21Q3aeugYwYsM-4N-85" value="" style="endArrow=open;endFill=1;endSize=12;html=1;rounded=0;edgeStyle=orthogonalEdgeStyle;exitX=0.5;exitY=1;exitDx=0;exitDy=0;entryX=0.5;entryY=1;entryDx=0;entryDy=0;" edge="1" parent="1" source="NA3H21Q3aeugYwYsM-4N-69" target="NA3H21Q3aeugYwYsM-4N-70">
          <mxGeometry width="160" relative="1" as="geometry">
            <mxPoint x="140" y="880" as="sourcePoint" />
            <mxPoint x="300" y="880" as="targetPoint" />
          </mxGeometry>
        </mxCell>
        <mxCell id="NA3H21Q3aeugYwYsM-4N-86" value="" style="rounded=0;whiteSpace=wrap;html=1;strokeColor=#000000;" vertex="1" parent="1">
          <mxGeometry x="450" y="699" width="290" height="241" as="geometry" />
        </mxCell>
        <mxCell id="NA3H21Q3aeugYwYsM-4N-87" value="sprite" style="rounded=0;whiteSpace=wrap;html=1;strokeColor=#000000;" vertex="1" parent="1">
          <mxGeometry x="450" y="680" width="120" height="20" as="geometry" />
        </mxCell>
        <mxCell id="NA3H21Q3aeugYwYsM-4N-88" value="AnimatedSprite" style="rounded=0;whiteSpace=wrap;html=1;strokeColor=#000000;" vertex="1" parent="1">
          <mxGeometry x="470" y="720" width="100" height="35" as="geometry" />
        </mxCell>
        <mxCell id="NA3H21Q3aeugYwYsM-4N-90" value="EmptySprite" style="rounded=0;whiteSpace=wrap;html=1;strokeColor=#000000;" vertex="1" parent="1">
          <mxGeometry x="470" y="790" width="100" height="30" as="geometry" />
        </mxCell>
        <mxCell id="NA3H21Q3aeugYwYsM-4N-91" value="ImageSprite" style="rounded=0;whiteSpace=wrap;html=1;strokeColor=#000000;" vertex="1" parent="1">
          <mxGeometry x="470" y="870" width="100" height="30" as="geometry" />
        </mxCell>
        <mxCell id="NA3H21Q3aeugYwYsM-4N-92" value="PacManSprites" style="rounded=0;whiteSpace=wrap;html=1;strokeColor=#000000;" vertex="1" parent="1">
          <mxGeometry x="615" y="835" width="100" height="30" as="geometry" />
        </mxCell>
        <mxCell id="NA3H21Q3aeugYwYsM-4N-93" value="SpriteStore" style="rounded=0;whiteSpace=wrap;html=1;strokeColor=#000000;" vertex="1" parent="1">
          <mxGeometry x="605" y="735" width="110" height="30" as="geometry" />
        </mxCell>
        <mxCell id="NA3H21Q3aeugYwYsM-4N-94" value="" style="endArrow=open;endFill=1;endSize=12;html=1;rounded=0;edgeStyle=orthogonalEdgeStyle;exitX=0.5;exitY=1;exitDx=0;exitDy=0;entryX=0.5;entryY=0;entryDx=0;entryDy=0;" edge="1" parent="1" source="NA3H21Q3aeugYwYsM-4N-88" target="NA3H21Q3aeugYwYsM-4N-90">
          <mxGeometry width="160" relative="1" as="geometry">
            <mxPoint x="510" y="830" as="sourcePoint" />
            <mxPoint x="670" y="830" as="targetPoint" />
          </mxGeometry>
        </mxCell>
        <mxCell id="NA3H21Q3aeugYwYsM-4N-95" value="" style="endArrow=open;endFill=1;endSize=12;html=1;rounded=0;edgeStyle=orthogonalEdgeStyle;exitX=0.5;exitY=0;exitDx=0;exitDy=0;entryX=0.5;entryY=1;entryDx=0;entryDy=0;" edge="1" parent="1" source="NA3H21Q3aeugYwYsM-4N-91" target="NA3H21Q3aeugYwYsM-4N-90">
          <mxGeometry width="160" relative="1" as="geometry">
            <mxPoint x="510" y="830" as="sourcePoint" />
            <mxPoint x="670" y="830" as="targetPoint" />
          </mxGeometry>
        </mxCell>
        <mxCell id="NA3H21Q3aeugYwYsM-4N-96" value="" style="endArrow=open;endFill=1;endSize=12;html=1;rounded=0;edgeStyle=orthogonalEdgeStyle;exitX=0.5;exitY=0;exitDx=0;exitDy=0;entryX=1;entryY=0.5;entryDx=0;entryDy=0;" edge="1" parent="1" source="NA3H21Q3aeugYwYsM-4N-92" target="NA3H21Q3aeugYwYsM-4N-88">
          <mxGeometry width="160" relative="1" as="geometry">
            <mxPoint x="510" y="830" as="sourcePoint" />
            <mxPoint x="670" y="830" as="targetPoint" />
            <Array as="points">
              <mxPoint x="600" y="835" />
              <mxPoint x="600" y="780" />
              <mxPoint x="570" y="780" />
            </Array>
          </mxGeometry>
        </mxCell>
        <mxCell id="NA3H21Q3aeugYwYsM-4N-97" value="" style="endArrow=open;endFill=1;endSize=12;html=1;rounded=0;edgeStyle=orthogonalEdgeStyle;exitX=0.75;exitY=0;exitDx=0;exitDy=0;entryX=0.75;entryY=1;entryDx=0;entryDy=0;" edge="1" parent="1" source="NA3H21Q3aeugYwYsM-4N-92" target="NA3H21Q3aeugYwYsM-4N-93">
          <mxGeometry width="160" relative="1" as="geometry">
            <mxPoint x="510" y="830" as="sourcePoint" />
            <mxPoint x="670" y="830" as="targetPoint" />
            <Array as="points">
              <mxPoint x="690" y="825" />
              <mxPoint x="688" y="825" />
              <mxPoint x="688" y="830" />
            </Array>
          </mxGeometry>
        </mxCell>
        <mxCell id="NA3H21Q3aeugYwYsM-4N-98" value="" style="endArrow=open;endFill=1;endSize=12;html=1;rounded=0;edgeStyle=orthogonalEdgeStyle;exitX=0;exitY=0.25;exitDx=0;exitDy=0;entryX=1;entryY=0.25;entryDx=0;entryDy=0;" edge="1" parent="1" source="NA3H21Q3aeugYwYsM-4N-93" target="NA3H21Q3aeugYwYsM-4N-88">
          <mxGeometry width="160" relative="1" as="geometry">
            <mxPoint x="510" y="830" as="sourcePoint" />
            <mxPoint x="670" y="830" as="targetPoint" />
          </mxGeometry>
        </mxCell>
        <mxCell id="NA3H21Q3aeugYwYsM-4N-99" value="" style="endArrow=open;endFill=1;endSize=12;html=1;rounded=0;edgeStyle=orthogonalEdgeStyle;exitX=0;exitY=1;exitDx=0;exitDy=0;" edge="1" parent="1" source="NA3H21Q3aeugYwYsM-4N-93">
          <mxGeometry width="160" relative="1" as="geometry">
            <mxPoint x="510" y="830" as="sourcePoint" />
            <mxPoint x="570" y="885" as="targetPoint" />
            <Array as="points">
              <mxPoint x="590" y="765" />
              <mxPoint x="590" y="885" />
            </Array>
          </mxGeometry>
        </mxCell>
        <mxCell id="dd4diaTLzipPxqVwWaSN-3" value="" style="rounded=0;whiteSpace=wrap;html=1;strokeColor=#000000;" vertex="1" parent="1">
          <mxGeometry x="880" y="90" width="370" height="240" as="geometry" />
        </mxCell>
        <mxCell id="dd4diaTLzipPxqVwWaSN-5" value="ui" style="rounded=0;whiteSpace=wrap;html=1;strokeColor=#000000;" vertex="1" parent="1">
          <mxGeometry x="880" y="60" width="80" height="30" as="geometry" />
        </mxCell>
        <mxCell id="dd4diaTLzipPxqVwWaSN-6" value="BoardPanel" style="rounded=0;whiteSpace=wrap;html=1;strokeColor=#000000;" vertex="1" parent="1">
          <mxGeometry x="910" y="120" width="110" height="30" as="geometry" />
        </mxCell>
        <mxCell id="dd4diaTLzipPxqVwWaSN-7" value="ButtonPanel" style="rounded=0;whiteSpace=wrap;html=1;strokeColor=#000000;" vertex="1" parent="1">
          <mxGeometry x="910" y="195" width="112.5" height="25" as="geometry" />
        </mxCell>
        <mxCell id="dd4diaTLzipPxqVwWaSN-8" value="PacKeyListener" style="rounded=0;whiteSpace=wrap;html=1;strokeColor=#000000;" vertex="1" parent="1">
          <mxGeometry x="910" y="270" width="115" height="40" as="geometry" />
        </mxCell>
        <mxCell id="dd4diaTLzipPxqVwWaSN-9" value="PacManUI" style="rounded=0;whiteSpace=wrap;html=1;strokeColor=#000000;" vertex="1" parent="1">
          <mxGeometry x="1100" y="110" width="110" height="40" as="geometry" />
        </mxCell>
        <mxCell id="dd4diaTLzipPxqVwWaSN-10" value="PacManUiBuilder" style="rounded=0;whiteSpace=wrap;html=1;strokeColor=#000000;" vertex="1" parent="1">
          <mxGeometry x="1100" y="195" width="110" height="30" as="geometry" />
        </mxCell>
        <mxCell id="dd4diaTLzipPxqVwWaSN-11" value="ScorePanel" style="rounded=0;whiteSpace=wrap;html=1;strokeColor=#000000;" vertex="1" parent="1">
          <mxGeometry x="1100" y="270" width="110" height="30" as="geometry" />
        </mxCell>
        <mxCell id="dd4diaTLzipPxqVwWaSN-14" value="" style="endArrow=open;endFill=1;endSize=12;html=1;rounded=0;edgeStyle=orthogonalEdgeStyle;entryX=0.5;entryY=0;entryDx=0;entryDy=0;" edge="1" parent="1" target="dd4diaTLzipPxqVwWaSN-6">
          <mxGeometry width="160" relative="1" as="geometry">
            <mxPoint x="1100" y="110" as="sourcePoint" />
            <mxPoint x="1110" y="90" as="targetPoint" />
            <Array as="points" />
          </mxGeometry>
        </mxCell>
        <mxCell id="dd4diaTLzipPxqVwWaSN-15" value="" style="endArrow=open;endFill=1;endSize=12;html=1;rounded=0;edgeStyle=orthogonalEdgeStyle;exitX=0;exitY=0.5;exitDx=0;exitDy=0;entryX=1;entryY=0.5;entryDx=0;entryDy=0;" edge="1" parent="1" source="dd4diaTLzipPxqVwWaSN-9" target="dd4diaTLzipPxqVwWaSN-7">
          <mxGeometry width="160" relative="1" as="geometry">
            <mxPoint x="950" y="90" as="sourcePoint" />
            <mxPoint x="1110" y="90" as="targetPoint" />
            <Array as="points">
              <mxPoint x="1060" y="130" />
              <mxPoint x="1060" y="208" />
            </Array>
          </mxGeometry>
        </mxCell>
        <mxCell id="dd4diaTLzipPxqVwWaSN-16" value="" style="endArrow=open;endFill=1;endSize=12;html=1;rounded=0;edgeStyle=orthogonalEdgeStyle;exitX=0;exitY=1;exitDx=0;exitDy=0;entryX=1;entryY=0.5;entryDx=0;entryDy=0;" edge="1" parent="1" source="dd4diaTLzipPxqVwWaSN-9" target="dd4diaTLzipPxqVwWaSN-8">
          <mxGeometry width="160" relative="1" as="geometry">
            <mxPoint x="950" y="90" as="sourcePoint" />
            <mxPoint x="1110" y="90" as="targetPoint" />
            <Array as="points">
              <mxPoint x="1100" y="180" />
              <mxPoint x="1070" y="180" />
              <mxPoint x="1070" y="290" />
            </Array>
          </mxGeometry>
        </mxCell>
        <mxCell id="dd4diaTLzipPxqVwWaSN-17" value="" style="endArrow=open;endFill=1;endSize=12;html=1;rounded=0;edgeStyle=orthogonalEdgeStyle;exitX=1;exitY=0.5;exitDx=0;exitDy=0;entryX=1;entryY=0.5;entryDx=0;entryDy=0;" edge="1" parent="1" source="dd4diaTLzipPxqVwWaSN-9" target="dd4diaTLzipPxqVwWaSN-11">
          <mxGeometry width="160" relative="1" as="geometry">
            <mxPoint x="950" y="90" as="sourcePoint" />
            <mxPoint x="1110" y="90" as="targetPoint" />
            <Array as="points">
              <mxPoint x="1230" y="130" />
              <mxPoint x="1230" y="285" />
            </Array>
          </mxGeometry>
        </mxCell>
        <mxCell id="dd4diaTLzipPxqVwWaSN-18" value="" style="endArrow=open;endFill=1;endSize=12;html=1;rounded=0;edgeStyle=orthogonalEdgeStyle;exitX=0.5;exitY=0;exitDx=0;exitDy=0;" edge="1" parent="1" source="dd4diaTLzipPxqVwWaSN-10" target="dd4diaTLzipPxqVwWaSN-9">
          <mxGeometry width="160" relative="1" as="geometry">
            <mxPoint x="950" y="90" as="sourcePoint" />
            <mxPoint x="1110" y="90" as="targetPoint" />
          </mxGeometry>
        </mxCell>
        <mxCell id="dd4diaTLzipPxqVwWaSN-20" value="" style="endArrow=open;endFill=1;endSize=12;html=1;rounded=0;edgeStyle=orthogonalEdgeStyle;exitX=0.5;exitY=1;exitDx=0;exitDy=0;entryX=1;entryY=0.25;entryDx=0;entryDy=0;strokeWidth=2;" edge="1" parent="1" source="NA3H21Q3aeugYwYsM-4N-1" target="NA3H21Q3aeugYwYsM-4N-86">
          <mxGeometry width="160" relative="1" as="geometry">
            <mxPoint x="340" y="570" as="sourcePoint" />
            <mxPoint x="500" y="570" as="targetPoint" />
            <Array as="points">
              <mxPoint x="240" y="310" />
              <mxPoint x="790" y="310" />
              <mxPoint x="790" y="759" />
            </Array>
          </mxGeometry>
        </mxCell>
        <mxCell id="dd4diaTLzipPxqVwWaSN-21" value="" style="endArrow=open;endFill=1;endSize=12;html=1;rounded=0;strokeWidth=2;edgeStyle=orthogonalEdgeStyle;exitX=0.25;exitY=1;exitDx=0;exitDy=0;entryX=0.645;entryY=0;entryDx=0;entryDy=0;entryPerimeter=0;" edge="1" parent="1" source="NA3H21Q3aeugYwYsM-4N-10" target="NA3H21Q3aeugYwYsM-4N-35">
          <mxGeometry width="160" relative="1" as="geometry">
            <mxPoint x="70" y="570" as="sourcePoint" />
            <mxPoint x="230" y="570" as="targetPoint" />
            <Array as="points">
              <mxPoint x="535" y="270" />
              <mxPoint x="400" y="270" />
            </Array>
          </mxGeometry>
        </mxCell>
        <mxCell id="dd4diaTLzipPxqVwWaSN-22" value="" style="endArrow=open;endFill=1;endSize=12;html=1;rounded=0;strokeWidth=2;edgeStyle=orthogonalEdgeStyle;exitX=0.25;exitY=0;exitDx=0;exitDy=0;entryX=0.25;entryY=1;entryDx=0;entryDy=0;" edge="1" parent="1" source="NA3H21Q3aeugYwYsM-4N-35" target="NA3H21Q3aeugYwYsM-4N-1">
          <mxGeometry width="160" relative="1" as="geometry">
            <mxPoint x="640" y="530" as="sourcePoint" />
            <mxPoint x="800" y="530" as="targetPoint" />
          </mxGeometry>
        </mxCell>
        <mxCell id="dd4diaTLzipPxqVwWaSN-24" value="" style="endArrow=open;endFill=1;endSize=12;html=1;rounded=0;strokeWidth=2;edgeStyle=orthogonalEdgeStyle;exitX=1;exitY=0.5;exitDx=0;exitDy=0;" edge="1" parent="1" source="NA3H21Q3aeugYwYsM-4N-35">
          <mxGeometry width="160" relative="1" as="geometry">
            <mxPoint x="380" y="460" as="sourcePoint" />
            <mxPoint x="620" y="690" as="targetPoint" />
          </mxGeometry>
        </mxCell>
        <mxCell id="dd4diaTLzipPxqVwWaSN-25" value="" style="endArrow=open;endFill=1;endSize=12;html=1;rounded=0;strokeWidth=2;edgeStyle=orthogonalEdgeStyle;exitX=0.383;exitY=1;exitDx=0;exitDy=0;exitPerimeter=0;entryX=0.61;entryY=0.003;entryDx=0;entryDy=0;entryPerimeter=0;" edge="1" parent="1" source="NA3H21Q3aeugYwYsM-4N-35" target="NA3H21Q3aeugYwYsM-4N-60">
          <mxGeometry width="160" relative="1" as="geometry">
            <mxPoint x="380" y="460" as="sourcePoint" />
            <mxPoint x="540" y="460" as="targetPoint" />
          </mxGeometry>
        </mxCell>
        <mxCell id="dd4diaTLzipPxqVwWaSN-27" value="" style="endArrow=open;endFill=1;endSize=12;html=1;rounded=0;strokeWidth=2;edgeStyle=orthogonalEdgeStyle;entryX=0.621;entryY=1;entryDx=0;entryDy=0;entryPerimeter=0;" edge="1" parent="1" target="NA3H21Q3aeugYwYsM-4N-86">
          <mxGeometry width="160" relative="1" as="geometry">
            <mxPoint x="420" y="990" as="sourcePoint" />
            <mxPoint x="560" y="520" as="targetPoint" />
            <Array as="points">
              <mxPoint x="420" y="990" />
              <mxPoint x="630" y="990" />
            </Array>
          </mxGeometry>
        </mxCell>
        <mxCell id="dd4diaTLzipPxqVwWaSN-28" value="" style="endArrow=block;startArrow=block;endFill=1;startFill=1;html=1;rounded=0;endSize=12;strokeWidth=2;edgeStyle=orthogonalEdgeStyle;exitX=0;exitY=0.5;exitDx=0;exitDy=0;" edge="1" parent="1" source="NA3H21Q3aeugYwYsM-4N-60">
          <mxGeometry width="160" relative="1" as="geometry">
            <mxPoint x="320" y="520" as="sourcePoint" />
            <mxPoint x="50" y="140" as="targetPoint" />
            <Array as="points">
              <mxPoint x="-20" y="874" />
              <mxPoint x="-20" y="140" />
            </Array>
          </mxGeometry>
        </mxCell>
        <mxCell id="dd4diaTLzipPxqVwWaSN-29" value="" style="endArrow=open;endFill=1;endSize=12;html=1;rounded=0;strokeWidth=2;edgeStyle=orthogonalEdgeStyle;entryX=0.75;entryY=0;entryDx=0;entryDy=0;" edge="1" parent="1" target="NA3H21Q3aeugYwYsM-4N-1">
          <mxGeometry width="160" relative="1" as="geometry">
            <mxPoint x="1060" y="90" as="sourcePoint" />
            <mxPoint x="910" y="300" as="targetPoint" />
            <Array as="points">
              <mxPoint x="1060" y="10" />
              <mxPoint x="335" y="10" />
            </Array>
          </mxGeometry>
        </mxCell>
        <mxCell id="dd4diaTLzipPxqVwWaSN-30" value="" style="endArrow=open;endFill=1;endSize=12;html=1;rounded=0;strokeWidth=2;edgeStyle=orthogonalEdgeStyle;exitX=0;exitY=0.375;exitDx=0;exitDy=0;exitPerimeter=0;" edge="1" parent="1" source="dd4diaTLzipPxqVwWaSN-3">
          <mxGeometry width="160" relative="1" as="geometry">
            <mxPoint x="570" y="420" as="sourcePoint" />
            <mxPoint x="760" y="180" as="targetPoint" />
          </mxGeometry>
        </mxCell>
        <mxCell id="dd4diaTLzipPxqVwWaSN-31" value="" style="endArrow=open;endFill=1;endSize=12;html=1;rounded=0;strokeWidth=2;edgeStyle=orthogonalEdgeStyle;exitX=0.25;exitY=1;exitDx=0;exitDy=0;entryX=1;entryY=0.25;entryDx=0;entryDy=0;" edge="1" parent="1" source="dd4diaTLzipPxqVwWaSN-3" target="NA3H21Q3aeugYwYsM-4N-35">
          <mxGeometry width="160" relative="1" as="geometry">
            <mxPoint x="540" y="610" as="sourcePoint" />
            <mxPoint x="700" y="610" as="targetPoint" />
          </mxGeometry>
        </mxCell>
      </root>
    </mxGraphModel>
  </diagram>
  <diagram id="_Bei6ZKPFpY2K-pGwtuD" name="Page-2">
    <mxGraphModel dx="2163" dy="1830" grid="1" gridSize="10" guides="1" tooltips="1" connect="1" arrows="1" fold="1" page="1" pageScale="1" pageWidth="827" pageHeight="1169" math="0" shadow="0">
      <root>
        <mxCell id="2BBQdihef2JVQWBeRTqA-0" />
        <mxCell id="2BBQdihef2JVQWBeRTqA-1" parent="2BBQdihef2JVQWBeRTqA-0" />
      </root>
    </mxGraphModel>
  </diagram>
</mxfile>
